<?xml version="1.0" encoding="UTF-8" standalone="no"?>
<svg
   width="17247.984"
   height="3202.6663"
   version="1.1"
   viewBox="0 0 4563.5899 847.37827"
   id="svg46844"
   sodipodi:docname="interoracle_title.svg"
   inkscape:version="1.1 (c4e8f9e, 2021-05-24)"
   xmlns:inkscape="http://www.inkscape.org/namespaces/inkscape"
   xmlns:sodipodi="http://sodipodi.sourceforge.net/DTD/sodipodi-0.dtd"
   xmlns:xlink="http://www.w3.org/1999/xlink"
   xmlns="http://www.w3.org/2000/svg"
   xmlns:svg="http://www.w3.org/2000/svg">
  <sodipodi:namedview
     id="namedview46846"
     pagecolor="#505050"
     bordercolor="#ffffff"
     borderopacity="1"
     inkscape:pageshadow="0"
     inkscape:pageopacity="0"
     inkscape:pagecheckerboard="1"
     showgrid="false"
     fit-margin-top="0"
     fit-margin-left="0"
     fit-margin-right="0"
     fit-margin-bottom="0"
     inkscape:zoom="0.019981706"
     inkscape:cx="6380.8365"
     inkscape:cy="7581.9351"
     inkscape:window-width="1296"
     inkscape:window-height="799"
     inkscape:window-x="0"
     inkscape:window-y="25"
     inkscape:window-maximized="0"
     inkscape:current-layer="svg46844" />
  <defs
     id="defs46780">
    <linearGradient
       id="a">
      <stop
         stop-color="#75eef2"
         offset="0"
         id="stop46771" />
      <stop
         stop-color="#cf8bf3"
         offset="1"
         id="stop46773" />
    </linearGradient>
    <linearGradient
       id="e"
       x1="1109.5"
       x2="4224.2002"
       y1="4283.1001"
       y2="4283.1001"
       gradientUnits="userSpaceOnUse"
       xlink:href="#a" />
    <linearGradient
       id="d"
       x1="3033.7"
       x2="5827"
       y1="4283.1001"
       y2="4283.1001"
       gradientUnits="userSpaceOnUse"
       xlink:href="#a" />
    <linearGradient
       id="c"
       x1="-10350"
       x2="-9890.2002"
       y1="17595"
       y2="17595"
       gradientTransform="matrix(1.421,0,0,1.421,8952.6,8211.1)"
       gradientUnits="userSpaceOnUse"
       xlink:href="#a" />
    <linearGradient
       id="b"
       x1="-10350"
       x2="-9890.2002"
       y1="17595"
       y2="17595"
       gradientTransform="matrix(1.421,0,0,1.421,16613.9,-24674.7)"
       gradientUnits="userSpaceOnUse"
       xlink:href="#a" />
    <linearGradient
       inkscape:collect="always"
       xlink:href="#a"
       id="linearGradient3678"
       gradientUnits="userSpaceOnUse"
       gradientTransform="matrix(0.04455421,0,0,0.04390586,998.2095,-65.180606)"
       x1="-10350"
       y1="17595"
       x2="-9890.2002"
       y2="17595" />
    <radialGradient
       inkscape:collect="always"
       xlink:href="#linearGradient17720"
       id="radialGradient17724"
       cx="1519.7628"
       cy="1146.0636"
       fx="1519.7628"
       fy="1146.0636"
       r="149.88577"
       gradientUnits="userSpaceOnUse"
       gradientTransform="matrix(-4.689892e-4,0.00410312,-0.00282014,-3.1302945e-4,536.9982,690.56677)" />
    <linearGradient
       inkscape:collect="always"
       id="linearGradient17720">
      <stop
         style="stop-color:#ffffff;stop-opacity:0.96681422"
         offset="0"
         id="stop17716" />
      <stop
         style="stop-color:#ffffff;stop-opacity:0;"
         offset="1"
         id="stop17718" />
    </linearGradient>
    <linearGradient
       inkscape:collect="always"
       xlink:href="#a"
       id="linearGradient47016"
       gradientUnits="userSpaceOnUse"
       x1="1109.5"
       y1="4283.1001"
       x2="4224.2002"
       y2="4283.1001" />
    <linearGradient
       inkscape:collect="always"
       xlink:href="#a"
       id="linearGradient47018"
       gradientUnits="userSpaceOnUse"
       x1="1109.5"
       y1="4283.1001"
       x2="4224.2002"
       y2="4283.1001" />
    <linearGradient
       inkscape:collect="always"
       xlink:href="#a"
       id="linearGradient47020"
       gradientUnits="userSpaceOnUse"
       x1="1109.5"
       y1="4283.1001"
       x2="4224.2002"
       y2="4283.1001" />
    <linearGradient
       inkscape:collect="always"
       xlink:href="#a"
       id="linearGradient47022"
       gradientUnits="userSpaceOnUse"
       x1="1109.5"
       y1="4283.1001"
       x2="4224.2002"
       y2="4283.1001" />
    <linearGradient
       inkscape:collect="always"
       xlink:href="#a"
       id="linearGradient47024"
       gradientUnits="userSpaceOnUse"
       x1="1109.5"
       y1="4283.1001"
       x2="4224.2002"
       y2="4283.1001" />
    <linearGradient
       inkscape:collect="always"
       xlink:href="#a"
       id="linearGradient47026"
       gradientUnits="userSpaceOnUse"
       x1="3033.7"
       y1="4283.1001"
       x2="5827"
       y2="4283.1001" />
    <linearGradient
       inkscape:collect="always"
       xlink:href="#a"
       id="linearGradient47028"
       gradientUnits="userSpaceOnUse"
       x1="3033.7"
       y1="4283.1001"
       x2="5827"
       y2="4283.1001" />
    <linearGradient
       inkscape:collect="always"
       xlink:href="#a"
       id="linearGradient47030"
       gradientUnits="userSpaceOnUse"
       x1="3033.7"
       y1="4283.1001"
       x2="5827"
       y2="4283.1001" />
    <linearGradient
       inkscape:collect="always"
       xlink:href="#a"
       id="linearGradient47032"
       gradientUnits="userSpaceOnUse"
       x1="3033.7"
       y1="4283.1001"
       x2="5827"
       y2="4283.1001" />
    <linearGradient
       inkscape:collect="always"
       xlink:href="#a"
       id="linearGradient47034"
       gradientUnits="userSpaceOnUse"
       x1="3033.7"
       y1="4283.1001"
       x2="5827"
       y2="4283.1001" />
  </defs>
  <g
     id="g47636"
     transform="translate(-0.01,-24.063061)">
    <g
       id="g47604"
       transform="translate(0,53.946127)">
      <g
         transform="matrix(1.4422,0,0,1.4422,-1496.5,-5809.6)"
         fill="url(#e)"
         stroke="#75eef2"
         stroke-width="0.265"
         style="white-space:pre;inline-size:3351.32;fill:url(#e)"
         aria-label="RACLE"
         id="g46792">
        <path
           d="m 3083.4,4198.1 q 0,28.222 -16.933,46.919 -16.933,18.697 -53.975,25.047 l 77.964,93.839 q 9.525,11.642 20.814,16.933 11.642,4.9389 27.517,7.4084 v 13.406 h -68.086 l -86.43,-110.77 q -4.5861,-5.9972 -8.8194,-9.525 -3.8806,-3.5277 -8.4667,-5.2916 -4.2333,-2.1167 -10.23,-2.4695 -5.6444,-0.7055 -13.758,-0.7055 v 73.378 q 0,13.053 1.4111,21.519 1.7639,8.1139 6.7028,12.7 5.2916,4.5861 14.817,6.35 9.8778,1.4111 25.753,1.4111 v 13.406 h -124.53 v -13.406 q 12.347,-0.3528 19.756,-2.1167 7.7611,-1.7639 11.994,-5.9972 4.2333,-4.2333 5.6444,-11.994 1.4111,-7.7607 1.4111,-20.108 v -164.39 q 0,-12.347 -1.4111,-19.756 -1.0583,-7.7611 -4.9389,-11.994 -3.5278,-4.5861 -10.583,-5.9972 -7.0555,-1.7639 -18.344,-2.4695 v -13.406 h 110.77 q 48.683,0 75.142,17.992 26.811,17.992 26.811,50.094 z m -140.41,57.15 h 25.047 q 35.278,0 52.211,-12.7 17.286,-13.053 17.286,-42.686 0,-28.575 -13.758,-40.922 -13.406,-12.347 -42.333,-12.347 h -32.456 q -5.9972,0 -5.9972,5.9972 z"
           id="path46782"
           style="fill:url(#linearGradient47016)" />
        <path
           d="m 3301.4,4303.2 h -94.192 q -5.9972,14.464 -10.23,25.753 -4.2333,10.936 -7.0555,19.05 -2.4695,8.1139 -3.5278,13.758 -1.0583,5.6441 -1.0583,9.1722 0,9.8777 6.3499,13.758 6.35,3.5278 21.167,3.5278 v 13.406 h -85.725 v -13.406 q 8.1139,-1.0584 13.758,-2.8223 5.9972,-1.7638 10.23,-4.9388 4.5861,-3.175 7.7611,-8.1139 3.5277,-5.2917 6.7027,-12.7 l 91.722,-229.66 h 15.169 l 80.08,198.97 q 8.1138,19.756 14.111,31.75 5.9972,11.642 11.642,17.639 5.6444,5.9972 11.994,7.7611 6.7028,1.7639 15.875,1.7639 v 13.758 h -115.01 v -13.758 q 18.697,0 25.753,-3.5278 7.0555,-3.5278 7.0555,-11.642 0,-3.5278 -0.3528,-6.35 -0.3527,-3.175 -1.4111,-6.7028 -0.7055,-3.5277 -2.4694,-7.7611 -1.4111,-4.5861 -3.8806,-10.583 z m -87.136,-17.639 h 80.433 l -39.158,-104.07 z"
           id="path46784"
           style="fill:url(#linearGradient47018)" />
        <path
           d="m 3637.6,4130 h 9.8778 l 3.175,81.139 h -13.053 q -7.7611,-31.044 -29.986,-48.683 -22.225,-17.639 -53.622,-17.639 -21.519,0 -38.453,8.4667 -16.933,8.4666 -28.575,24.342 -11.642,15.875 -17.992,38.806 -5.9972,22.93 -5.9972,51.858 0,56.797 23.636,87.489 23.636,30.339 68.439,30.339 68.086,0 87.489,-72.319 h 14.464 v 87.842 h -12.347 l -8.1138,-27.869 q -37.042,31.397 -89.605,31.397 -29.986,0 -54.328,-9.525 -23.989,-9.525 -41.275,-26.811 -16.933,-17.639 -26.458,-42.686 -9.1722,-25.047 -9.1722,-55.739 0,-32.103 9.8777,-58.561 9.8778,-26.458 27.517,-45.508 17.992,-19.05 42.686,-29.28 25.047,-10.583 55.033,-10.583 21.167,0 39.864,5.9972 18.697,5.9972 40.569,19.403 z"
           id="path46786"
           style="fill:url(#linearGradient47020)" />
        <path
           d="m 3921.2,4401.6 h -227.89 v -13.406 q 12.347,-0.3528 19.756,-2.1167 7.7611,-1.7639 11.994,-5.9972 4.2333,-4.2333 5.6444,-11.994 1.4111,-7.7607 1.4111,-20.108 v -164.39 q 0,-12.347 -1.4111,-19.756 -1.0583,-7.7611 -4.9389,-11.994 -3.5278,-4.5861 -10.583,-5.9972 -7.0555,-1.7639 -18.344,-2.4695 v -13.406 h 107.24 v 13.406 q -11.289,0.3528 -18.344,2.1167 -6.7028,1.7639 -10.583,6.35 -3.5278,4.5861 -4.9389,12.7 -1.0583,8.1139 -1.0583,21.519 v 152.05 q 0,14.817 2.8222,24.342 3.175,9.1722 10.23,14.464 7.4083,4.9389 19.403,7.0555 11.994,1.7639 30.339,1.7639 20.108,0 33.867,-2.1166 13.758,-2.4695 22.93,-8.1139 9.525,-5.9972 14.817,-16.228 5.6445,-10.583 9.525,-27.164 h 13.406 z"
           id="path46788"
           style="fill:url(#linearGradient47022)" />
        <path
           d="m 4025.6,4252.4 q 19.05,0 31.75,-2.1166 13.053,-2.4695 20.461,-7.4084 7.7611,-4.9388 10.936,-12.7 3.5278,-7.7611 3.5278,-18.344 h 12.347 v 96.308 h -12.347 q 0,-10.583 -3.175,-18.344 -2.8222,-7.7611 -10.583,-12.7 -7.4083,-5.2917 -20.461,-7.7611 -12.7,-2.8222 -32.456,-2.8222 v 79.728 q 0,11.642 2.8223,19.403 2.8222,7.4083 9.5249,12.347 7.0556,4.5861 18.344,6.7028 11.289,1.7639 27.869,1.7639 18.697,0 31.75,-2.4695 13.053,-2.8222 21.872,-9.1722 8.8195,-6.35 14.111,-16.58 5.2917,-10.583 8.8194,-26.106 h 13.406 l -5.2917,69.497 h -219.07 v -13.406 q 12.347,-0.3528 19.756,-2.1167 7.7611,-1.7639 11.994,-5.9972 4.2329,-4.2333 5.6445,-11.994 1.4111,-7.7611 1.4111,-20.108 v -164.39 q 0,-12.347 -1.4111,-19.756 -1.0584,-7.7611 -4.9389,-11.994 -3.5278,-4.5861 -10.583,-5.9972 -7.0556,-1.7639 -18.344,-2.4695 v -13.406 h 203.91 l 3.175,62.089 h -12.347 q -2.1167,-14.111 -7.0556,-22.93 -4.5861,-9.1722 -13.053,-14.464 -8.1139,-5.2917 -20.814,-7.4083 -12.7,-2.1167 -30.692,-2.1167 h -44.803 q -5.9973,0 -5.9973,5.9972 z"
           id="path46790"
           style="fill:url(#linearGradient47024)" />
      </g>
      <g
         transform="matrix(1.4422,0,0,1.4422,-4116,-5812.1)"
         fill="url(#d)"
         stroke-width="0.265"
         style="white-space:pre;fill:url(#d)"
         aria-label="INTER"
         id="g46814">
        <path
           d="m 2943,4334.9 q 0,17.639 1.4111,27.869 1.4111,10.23 5.2917,15.875 4.2333,5.6444 11.642,7.4083 7.7611,1.7639 20.108,2.1167 v 13.406 h -114.3 v -13.406 q 12.347,-0.3528 19.756,-2.1167 7.7611,-2.1167 11.994,-7.4083 4.2333,-5.2917 5.6444,-14.817 1.4111,-9.8777 1.4111,-26.458 v -143.23 q 0,-14.817 -1.4111,-24.342 -1.0583,-9.8778 -4.9389,-15.522 -3.5278,-5.6444 -10.583,-7.7611 -7.0555,-2.4694 -18.344,-3.175 v -13.406 h 107.24 v 13.406 q -11.289,0.3528 -18.344,2.8222 -6.7028,2.4695 -10.583,8.4667 -3.5278,5.6444 -4.9389,15.875 -1.0583,10.231 -1.0583,26.106 z"
           color="#000000"
           style="fill:url(#linearGradient47026);-inkscape-stroke:none"
           id="path46794" />
        <path
           d="m 2870.5,4129.8 v 13.662 l 0.125,0.01 c 7.518,0.4699 13.622,1.5277 18.309,3.168 4.6784,1.4036 8.175,3.9695 10.51,7.7051 2.5698,3.7378 4.212,8.8902 4.916,15.461 0.9393,6.3402 1.4102,14.449 1.4102,24.322 v 143.23 c 0,11.05 -0.4709,19.865 -1.4102,26.439 -0.9385,6.3336 -2.815,11.249 -5.6171,14.752 -2.8022,3.5026 -6.7711,5.9558 -11.922,7.3613 -4.9247,1.1726 -11.503,1.8783 -19.728,2.1133 h -0.1289 v 13.668 h 114.56 v -13.668 h -0.1289 c -8.2251,-0.235 -14.919,-0.9405 -20.08,-2.1133 -4.911,-1.1697 -8.7592,-3.6173 -11.562,-7.3535 -2.5688,-3.7382 -4.3289,-9.0092 -5.2676,-15.814 -0.9393,-6.8102 -1.4082,-16.096 -1.4082,-27.852 v -138.29 c 0,-10.578 0.3522,-19.273 1.0567,-26.086 0.939,-6.8076 2.5816,-12.083 4.9179,-15.822 2.572,-3.9739 6.0721,-6.7732 10.514,-8.4102 4.6848,-1.6396 10.788,-2.5815 18.305,-2.8164 h 0.1289 v -13.666 z m 0.2656,0.2656 h 106.98 v 13.152 c -7.4696,0.2428 -13.563,1.1739 -18.256,2.8164 -4.4934,1.6555 -8.047,4.4992 -10.648,8.5195 -2.3667,3.7867 -4.0167,9.0939 -4.959,15.926 -0.7062,6.8274 -1.0586,15.533 -1.0586,26.119 v 138.29 c 0,11.763 0.47,21.058 1.4121,27.889 0.9425,6.8333 2.7105,12.144 5.3145,15.932 2.8405,3.7873 6.7525,6.2751 11.717,7.457 5.1572,1.1721 11.834,1.8719 20.006,2.1113 v 13.148 h -114.04 v -13.148 c 8.1703,-0.2394 14.728,-0.9408 19.652,-2.1133 5.1952,-1.4169 9.2209,-3.9012 12.062,-7.4531 2.8419,-3.5525 4.7288,-8.5154 5.6719,-14.881 0.9422,-6.5954 1.4121,-15.419 1.4121,-26.477 v -143.23 c 0,-9.8793 -0.4705,-17.996 -1.4121,-24.356 v -0.01 c -0.7071,-6.5934 -2.3558,-11.786 -4.9571,-15.572 -2.368,-3.7873 -5.9256,-6.3956 -10.65,-7.8144 -4.692,-1.6422 -10.785,-2.6928 -18.256,-3.168 z"
           color="#000000"
           fill="#75eef2"
           style="-inkscape-stroke:none"
           id="path46796" />
        <path
           d="m 3242.5,4405.1 -167.57,-220.84 h -1.4111 v 150.64 q 0,17.639 1.0584,27.869 1.4111,10.23 4.9388,15.875 3.8806,5.6444 10.583,7.4083 7.0555,1.7639 18.344,2.1167 v 13.406 h -94.897 v -13.406 q 12.347,-0.3528 19.756,-2.1167 7.7611,-2.1167 11.994,-7.4083 4.2333,-5.2917 5.6444,-14.817 1.4111,-9.8777 1.4111,-26.458 v -143.23 q 0,-14.817 -1.4111,-24.342 -1.0583,-9.8778 -4.9389,-15.522 -3.5277,-5.6444 -10.583,-7.7611 -7.0555,-2.4694 -18.344,-3.175 v -13.406 h 69.85 l 154.16,205.67 h 1.4111 v -138.99 q 0,-17.286 -1.4111,-27.517 -1.0583,-10.583 -4.9389,-16.228 -3.5277,-5.6444 -10.583,-7.4083 -6.7027,-1.7639 -17.992,-2.1167 v -13.406 h 94.897 v 13.406 q -12.347,0.3528 -20.108,2.4695 -7.4083,1.7638 -11.642,7.0555 -4.2337,5.2917 -5.6444,15.169 -1.4112,9.8778 -1.4112,26.106 v 210.96 z"
           color="#000000"
           style="fill:url(#linearGradient47028);-inkscape-stroke:none"
           id="path46798" />
        <path
           d="m 3016.9,4129.8 v 13.662 l 0.125,0.01 c 7.5181,0.4699 13.622,1.5277 18.309,3.168 4.6785,1.4036 8.1751,3.9695 10.51,7.7051 2.5698,3.7378 4.212,8.8902 4.916,15.461 0.9393,6.3402 1.4082,14.449 1.4082,24.322 v 143.23 c 0,11.05 -0.469,19.865 -1.4082,26.439 -0.9386,6.3336 -2.8151,11.249 -5.6172,14.752 -2.8021,3.5026 -6.7711,5.9558 -11.922,7.3613 -4.9247,1.1726 -11.503,1.8783 -19.728,2.1133 h -0.1289 v 13.668 h 95.162 v -13.668 h -0.1289 c -7.519,-0.235 -13.625,-0.9392 -18.314,-2.1113 -4.4383,-1.1684 -7.9321,-3.6158 -10.502,-7.3516 -2.3364,-3.7384 -3.9806,-9.0116 -4.9199,-15.818 -0.7045,-6.8123 -1.0586,-16.097 -1.0586,-27.852 v -150.5 h 1.2129 l 167.57,220.84 h 21.365 v -211.09 c 0,-10.815 0.4688,-19.511 1.4082,-26.086 0.9385,-6.57 2.8156,-11.603 5.6172,-15.105 2.8031,-3.504 6.653,-5.8395 11.568,-7.0098 5.1586,-1.407 11.852,-2.2299 20.076,-2.4649 h 0.129 v -13.666 h -95.162 v 13.666 h 0.129 c 7.5198,0.235 13.508,0.9415 17.961,2.1133 4.6765,1.1691 8.1699,3.6151 10.504,7.3496 2.5683,3.7357 4.2118,9.1241 4.916,16.166 0.9393,6.8104 1.4101,15.978 1.4101,27.498 v 138.86 h -1.2129 l -154.16,-205.67 z m 0.2657,0.2656 h 69.65 l 154.16,205.67 h 1.6094 v -139.13 c 0,-11.526 -0.4703,-20.699 -1.4121,-27.529 -0.7071,-7.0671 -2.3557,-12.496 -4.9609,-16.285 -2.3692,-3.788 -5.9305,-6.2785 -10.658,-7.461 -4.4555,-1.1725 -10.428,-1.8715 -17.892,-2.1113 v -13.15 h 94.631 v 13.15 c -8.1734,0.2408 -14.85,1.0557 -20.01,2.4629 -4.9606,1.1818 -8.8704,3.5508 -11.711,7.1016 -2.8428,3.5536 -4.729,8.6341 -5.6718,15.234 -0.9423,6.5953 -1.4122,15.301 -1.4122,26.123 v 210.83 h -20.969 l -167.57,-220.84 h -1.6093 v 150.77 c 0,11.762 0.3521,21.055 1.0586,27.883 0.9423,6.8318 2.5923,12.139 4.9589,15.926 2.6036,3.787 6.1641,6.2778 10.66,7.4609 4.6881,1.1721 10.777,1.8716 18.244,2.1114 v 13.15 h -94.631 v -13.148 c 8.1704,-0.2394 14.728,-0.9408 19.652,-2.1133 5.1952,-1.4169 9.221,-3.9012 12.062,-7.4531 2.842,-3.5525 4.7289,-8.5154 5.6719,-14.881 0.9422,-6.5954 1.4121,-15.419 1.4121,-26.477 v -143.23 c 0,-9.8793 -0.4704,-17.996 -1.4121,-24.356 v -0.01 c -0.7071,-6.5934 -2.3558,-11.786 -4.957,-15.572 -2.3679,-3.7873 -5.9255,-6.3956 -10.65,-7.8144 -4.6919,-1.6422 -10.785,-2.6928 -18.256,-3.168 z"
           color="#000000"
           fill="#75eef2"
           style="-inkscape-stroke:none"
           id="path46800" />
        <path
           d="m 3593.1,4197.4 h -14.464 q -1.0583,-15.169 -4.9389,-25.4 -3.8805,-10.231 -11.289,-15.875 -7.0555,-5.9972 -17.992,-8.4667 -10.936,-2.4694 -26.106,-2.4694 -13.053,0 -21.167,0.7056 -7.7611,0.3527 -11.994,1.7638 -4.2329,1.4111 -5.6445,3.5278 -1.0583,1.7639 -1.0583,4.9389 v 188.74 q 0,11.289 1.4111,19.403 1.7639,8.1139 6.35,13.406 4.9389,4.9388 13.758,7.761 9.1722,2.4695 23.989,2.8223 v 13.406 h -133.35 v -13.406 q 14.817,-0.3528 23.989,-2.8223 9.1722,-2.8222 13.758,-7.761 4.9389,-5.2917 6.35,-13.406 1.7639,-8.1138 1.7639,-19.403 v -188.74 q 0,-3.175 -1.4112,-4.9389 -1.0583,-2.1167 -4.9388,-3.5278 -3.5278,-1.4111 -10.231,-1.7638 -6.7027,-0.7056 -17.992,-0.7056 -13.758,0 -25.753,1.0583 -11.642,1.0584 -20.461,6.35 -8.4666,4.9389 -13.758,15.522 -5.2916,10.583 -5.6444,29.28 h -13.053 v -67.38 h 266.35 z"
           color="#000000"
           style="fill:url(#linearGradient47030);-inkscape-stroke:none"
           id="path46802" />
        <path
           d="m 3323.1,4129.8 v 67.646 h 13.314 v -0.1309 c 0.235,-12.453 2.1165,-22.196 5.6308,-29.225 3.5189,-7.0376 8.0879,-12.189 13.707,-15.467 5.8609,-3.5165 12.66,-5.628 20.404,-6.332 7.9919,-0.7052 16.572,-1.0567 25.74,-1.0567 7.5231,0 13.518,0.2336 17.978,0.7032 4.4605,0.2347 7.861,0.8225 10.19,1.7539 2.5706,0.9348 4.1834,2.0991 4.8652,3.4629 l 0.01,0.012 0.01,0.012 c 0.9165,1.1457 1.3808,2.7584 1.3808,4.8555 v 188.74 c 0,7.519 -0.5865,13.976 -1.7597,19.373 -0.9371,5.3883 -3.0426,9.8302 -6.3164,13.338 -3.036,3.2695 -7.5993,5.8477 -13.699,7.7246 -6.0986,1.6415 -14.084,2.5814 -23.953,2.8164 h -0.1308 v 13.668 h 133.62 v -13.668 h -0.1289 c -9.8682,-0.235 -17.853,-1.1732 -23.951,-2.8144 h -0.01 c -5.8587,-1.8756 -10.421,-4.4509 -13.693,-7.7207 -3.04,-3.5085 -5.1465,-7.9549 -6.3184,-13.346 -0.9383,-5.3979 -1.4082,-11.855 -1.4082,-19.373 v -188.74 c 0,-2.0999 0.351,-3.7215 1.0371,-4.8672 0.9149,-1.3707 2.7681,-2.5392 5.5742,-3.4746 2.8023,-0.9341 6.7919,-1.5211 11.959,-1.7559 5.4031,-0.4699 12.455,-0.7051 21.154,-0.7051 10.106,0 18.798,0.8215 26.076,2.4649 7.2742,1.6426 13.251,4.4574 17.936,8.4394 4.9171,3.7463 8.6661,9.0146 11.246,15.816 2.5807,6.8038 4.2247,15.258 4.9296,25.361 l 0.01,0.125 h 14.728 l -0.01,-0.1407 -3.5352,-67.506 z m 0.2637,0.2656 h 266.09 l 3.5117,67.115 h -14.207 c -0.7113,-10.063 -2.3497,-18.508 -4.9317,-25.314 -2.593,-6.8364 -6.3681,-12.15 -11.326,-15.93 h -0.01 c -4.7218,-4.0118 -10.738,-6.8408 -18.043,-8.4902 -7.3035,-1.6492 -16.015,-2.4727 -26.135,-2.4727 -8.7042,0 -15.762,0.2342 -21.178,0.7051 -5.1778,0.2356 -9.1825,0.8245 -12.023,1.7715 -2.8369,0.9456 -4.7457,2.1293 -5.7129,3.5801 -0.7236,1.206 -1.0781,2.8764 -1.0781,5.0078 v 188.74 c 0,7.5314 0.4715,14.004 1.414,19.424 1.1798,5.4267 3.3071,9.9181 6.3809,13.465 3.3115,3.3115 7.9164,5.9088 13.81,7.7949 6.1011,1.6426 14.074,2.5774 23.893,2.8183 v 13.148 h -133.09 v -13.148 c 9.8191,-0.2409 17.79,-1.1757 23.891,-2.8183 6.129,-1.8858 10.736,-4.4818 13.814,-7.7969 3.31,-3.5465 5.4378,-8.0413 6.3828,-13.469 v -0.01 c 1.1779,-5.4205 1.7656,-11.894 1.7656,-19.424 v -188.74 c 0,-2.1267 -0.4734,-3.797 -1.4296,-5.002 -0.73,-1.4556 -2.406,-2.6424 -5.004,-3.5879 -2.3736,-0.9494 -5.7933,-1.5375 -10.266,-1.7734 h -0.01 c -4.4755,-0.4708 -10.473,-0.7051 -17.998,-0.7051 -9.1756,0 -17.763,0.3527 -25.764,1.0586 -7.778,0.7071 -14.619,2.8302 -20.518,6.3691 -5.6685,3.3074 -10.272,8.5038 -13.809,15.576 -3.5282,7.0566 -5.4039,16.795 -5.6504,29.207 h -12.797 z"
           color="#000000"
           fill="#75eef2"
           style="-inkscape-stroke:none"
           id="path46804" />
        <path
           d="m 3690.8,4252.4 q 19.05,0 31.75,-2.1166 13.053,-2.4695 20.461,-7.4084 7.7611,-4.9388 10.936,-12.7 3.5278,-7.7611 3.5278,-18.344 h 12.347 v 96.308 h -12.347 q 0,-10.583 -3.175,-18.344 -2.8222,-7.7611 -10.583,-12.7 -7.4083,-5.2917 -20.461,-7.7611 -12.7,-2.8222 -32.456,-2.8222 v 79.728 q 0,11.642 2.8222,19.403 2.8223,7.4083 9.525,12.347 7.0556,4.5861 18.344,6.7028 11.289,1.7639 27.869,1.7639 18.697,0 31.75,-2.4695 13.053,-2.8222 21.872,-9.1722 8.819,-6.35 14.111,-16.58 5.2916,-10.583 8.8194,-26.106 h 13.406 l -5.2916,69.497 h -219.07 v -13.406 q 12.347,-0.3528 19.756,-2.1167 7.7611,-1.7639 11.994,-5.9972 4.2329,-4.2333 5.6444,-11.994 1.4115,-7.7607 1.4111,-20.108 v -164.39 q 0,-12.347 -1.4111,-19.756 -1.0583,-7.7611 -4.9389,-11.994 -3.5277,-4.5861 -10.583,-5.9972 -7.0555,-1.7639 -18.344,-2.4695 v -13.406 h 203.91 l 3.175,62.089 h -12.347 q -2.1166,-14.111 -7.0555,-22.93 -4.5861,-9.1722 -13.053,-14.464 -8.1139,-5.2917 -20.814,-7.4083 -12.7,-2.1167 -30.692,-2.1167 h -44.803 q -5.9972,0 -5.9972,5.9972 z"
           color="#000000"
           style="fill:url(#linearGradient47032);-inkscape-stroke:none"
           id="path46806" />
        <path
           d="m 3618.4,4129.8 v 13.662 l 0.125,0.01 c 7.5208,0.4701 13.629,1.2939 18.32,2.4668 4.6808,0.9362 8.1741,2.9205 10.504,5.9492 2.5639,2.7969 4.2013,6.7681 4.9043,11.924 0.9382,4.9256 1.4082,11.504 1.4082,19.73 v 164.39 c 0,8.2264 -0.4697,14.924 -1.4082,20.086 -0.9374,5.1553 -2.8087,9.125 -5.6075,11.924 -2.8,2.8001 -6.7728,4.7889 -11.93,5.9609 -4.9247,1.1726 -11.503,1.8783 -19.728,2.1133 h -0.1289 v 13.668 h 219.33 l 5.3105,-69.764 h -13.654 l -0.023,0.1035 c -2.3502,10.34 -5.2872,19.033 -8.8086,26.076 -3.519,6.8025 -8.2067,12.311 -14.068,16.531 -5.862,4.2206 -13.136,7.2719 -21.824,9.1503 -8.6898,1.6438 -19.263,2.4668 -31.721,2.4668 -11.047,0 -20.33,-0.5876 -27.846,-1.7617 -7.5089,-1.4083 -13.604,-3.6372 -18.287,-6.6797 v 0 c -4.4466,-3.278 -7.6008,-7.3687 -9.4726,-12.281 -1.8738,-5.1538 -2.8145,-11.606 -2.8145,-19.355 v -79.59 c 13.098,0.01 23.874,0.9431 32.295,2.8145 8.6894,1.6439 15.491,4.2262 20.408,7.7382 5.1537,3.2796 8.66,7.4888 10.531,12.635 2.1087,5.1546 3.1641,11.253 3.1641,18.295 v 0.1329 h 12.613 v -96.574 h -12.613 v 0.1329 c 0,7.0408 -1.1732,13.136 -3.5157,18.289 -2.1061,5.1481 -5.7303,9.3586 -10.885,12.639 -4.9175,3.2784 -11.722,5.7445 -20.412,7.3887 -8.4237,1.4038 -18.964,2.106 -31.594,2.1113 v -101.11 c 0,-1.977 0.4926,-3.436 1.4609,-4.4043 0.9683,-0.9683 2.4274,-1.459 4.4043,-1.459 h 44.803 c 11.989,0 22.213,0.7039 30.67,2.1133 8.4535,1.4089 15.374,3.8738 20.764,7.3887 5.6244,3.5152 9.9566,8.3155 13.004,14.41 3.2819,5.8604 5.6297,13.488 7.0391,22.885 l 0.018,0.1133 h 12.6 l -3.1875,-62.354 z m 0.2656,0.2656 h 203.65 l 3.1602,61.824 h -12.102 c -1.4143,-9.3593 -3.7555,-16.985 -7.0429,-22.857 v -0.01 c -3.0669,-6.1314 -7.4341,-10.971 -13.096,-14.51 -5.4286,-3.5399 -12.385,-6.0127 -20.863,-7.4257 -8.4767,-1.4128 -18.713,-2.1192 -30.713,-2.1192 h -44.803 c -2.0211,0 -3.561,0.5064 -4.5918,1.5371 -1.0307,1.0308 -1.5371,2.5707 -1.5371,4.5918 v 101.38 h 0.1309 c 12.705,0 23.296,-0.7063 31.773,-2.1192 8.7119,-1.6482 15.548,-4.1215 20.508,-7.4277 5.1903,-3.3034 8.8551,-7.5577 10.982,-12.754 2.3454,-5.1598 3.5136,-11.257 3.5293,-18.268 h 12.094 v 96.043 h -12.092 c -0.014,-7.0072 -1.0644,-13.1 -3.1738,-18.258 -1.8913,-5.1983 -5.4391,-9.4537 -10.629,-12.758 -4.9598,-3.5417 -11.795,-6.1329 -20.506,-7.7812 -8.4804,-1.8841 -19.306,-2.8242 -32.48,-2.8242 h -0.1309 v 79.859 c 0,7.7717 0.9414,14.253 2.8301,19.447 1.8905,4.9623 5.0835,9.1021 9.5703,12.408 4.723,3.0699 10.855,5.3092 18.393,6.7226 7.5357,1.1775 16.832,1.7657 27.891,1.7657 12.471,0 23.06,-0.8242 31.773,-2.4727 8.7159,-1.8845 16.025,-4.9473 21.922,-9.1934 5.8968,-4.2457 10.614,-9.7918 14.15,-16.629 3.5212,-7.0425 6.4514,-15.727 8.8007,-26.033 h 13.162 l -5.2714,69.232 h -218.81 v -13.148 c 8.1703,-0.2394 14.728,-0.9408 19.652,-2.1133 5.1914,-1.1799 9.2143,-3.1889 12.059,-6.0332 2.8457,-2.8456 4.7356,-6.8716 5.6797,-12.064 0.943,-5.1862 1.4141,-11.896 1.4141,-20.133 v -164.39 c 0,-8.2365 -0.4708,-14.827 -1.4141,-19.779 -0.7085,-5.1891 -2.3615,-9.2123 -4.9707,-12.059 -2.3727,-3.0797 -5.9294,-5.0922 -10.648,-6.0371 h -0.01 c -4.6862,-1.171 -10.773,-1.987 -18.238,-2.4589 z"
           color="#000000"
           fill="#75eef2"
           style="-inkscape-stroke:none"
           id="path46808" />
        <path
           d="m 4087.4,4198.1 q 0,28.222 -16.933,46.919 -16.933,18.697 -53.975,25.047 l 77.964,93.839 q 9.525,11.642 20.814,16.933 11.642,4.9389 27.517,7.4084 v 13.406 h -68.086 l -86.43,-110.77 q -4.5861,-5.9972 -8.8195,-9.525 -3.8805,-3.5277 -8.4666,-5.2916 -4.2333,-2.1167 -10.23,-2.4695 -5.6445,-0.7055 -13.758,-0.7055 v 73.378 q 0,13.053 1.4112,21.519 1.7638,8.1139 6.7027,12.7 5.2917,4.5861 14.817,6.35 9.8777,1.4111 25.753,1.4111 v 13.406 h -124.53 v -13.406 q 12.347,-0.3528 19.756,-2.1167 7.7611,-1.7639 11.994,-5.9972 4.2329,-4.2333 5.6445,-11.994 1.4111,-7.7611 1.4111,-20.108 v -164.39 q 0,-12.347 -1.4111,-19.756 -1.0584,-7.7611 -4.9389,-11.994 -3.5278,-4.5861 -10.583,-5.9972 -7.0556,-1.7639 -18.344,-2.4695 v -13.406 h 110.77 q 48.683,0 75.142,17.992 26.811,17.992 26.811,50.094 z m -140.41,57.15 h 25.047 q 35.278,0 52.211,-12.7 17.286,-13.053 17.286,-42.686 0,-28.575 -13.758,-40.922 -13.406,-12.347 -42.333,-12.347 h -32.455 q -5.9973,0 -5.9973,5.9972 z"
           color="#000000"
           style="fill:url(#linearGradient47034);-inkscape-stroke:none"
           id="path46810" />
        <path
           d="m 3874.5,4129.8 v 13.662 l 0.1231,0.01 c 7.5207,0.4701 13.629,1.2939 18.32,2.4668 4.6808,0.9362 8.176,2.9205 10.506,5.9492 2.5638,2.7969 4.2032,6.7681 4.9063,11.924 0.9382,4.9256 1.4102,11.504 1.4102,19.73 v 164.39 c 0,8.2264 -0.4717,14.924 -1.4102,20.086 -0.9374,5.1553 -2.8087,9.125 -5.6074,11.924 -2.8001,2.8001 -6.7729,4.7889 -11.93,5.9609 -4.9246,1.1726 -11.503,1.8783 -19.728,2.1133 h -0.1289 v 13.668 h 124.79 v -13.672 h -0.1308 c -10.579,0 -19.159,-0.4708 -25.734,-1.4101 -6.3309,-1.1733 -11.245,-3.2823 -14.748,-6.3184 -3.2682,-3.036 -5.4891,-7.2394 -6.6602,-12.627 -0.9384,-5.6328 -1.4082,-12.798 -1.4082,-21.492 v -73.238 c 5.3374,0 9.8904,0.2324 13.609,0.6972 3.9844,0.2344 7.3772,1.0538 10.18,2.4551 h 0.01 0.01 c 3.0414,1.1698 5.8479,2.9239 8.4238,5.2657 2.8119,2.3433 5.7457,5.5114 8.7988,9.5039 l 86.471,110.82 h 68.283 v -13.652 l -0.1133,-0.017 c -10.573,-1.6448 -19.733,-4.1101 -27.48,-7.3965 -7.5035,-3.5181 -14.425,-9.1489 -20.764,-16.896 l -77.82,-93.668 c 24.594,-4.2488 42.547,-12.589 53.828,-25.045 11.311,-12.489 16.967,-28.167 16.967,-47.008 0,-21.439 -8.9648,-38.19 -26.869,-50.205 -17.67,-12.016 -42.743,-18.016 -75.215,-18.016 z m 0.2637,0.2656 h 110.64 c 32.439,0 57.459,5.9956 75.066,17.969 17.844,11.974 26.752,28.619 26.752,49.984 0,18.788 -5.6319,34.39 -16.898,46.83 -11.262,12.435 -29.222,20.776 -53.898,25.006 l -0.2266,0.039 78.111,94.016 c 6.3595,7.7722 13.313,13.43 20.859,16.967 7.744,3.2854 16.895,5.7469 27.436,7.3945 v 13.166 h -67.889 l -86.391,-110.72 c -3.0617,-4.0038 -6.0073,-7.1845 -8.8399,-9.545 h 0.01 c -2.5947,-2.3588 -5.4294,-4.1285 -8.498,-5.3106 -2.8395,-1.4197 -6.2643,-2.2455 -10.272,-2.4824 -3.7708,-0.4713 -8.3623,-0.707 -13.775,-0.707 h -0.1328 v 73.51 c 0,8.7065 0.4695,15.886 1.4121,21.541 1.1802,5.4293 3.4268,9.691 6.7422,12.77 3.5512,3.0776 8.513,5.2 14.879,6.3789 6.5645,0.9378 15.119,1.4039 25.639,1.4082 v 13.145 h -124.27 v -13.148 c 8.1704,-0.2394 14.73,-0.9408 19.654,-2.1133 5.1901,-1.1799 9.2128,-3.1874 12.057,-6.0312 2.8456,-2.8456 4.7374,-6.8716 5.6816,-12.064 0.943,-5.1862 1.4121,-11.896 1.4121,-20.133 v -164.39 c 0,-8.2338 -0.4695,-14.822 -1.4121,-19.773 -0.7081,-5.1924 -2.3624,-9.217 -4.9726,-12.064 -2.3729,-3.0797 -5.9296,-5.0922 -10.648,-6.0371 h -0.01 c -4.6868,-1.1711 -10.772,-1.987 -18.238,-2.4589 z m 78.184,16.314 c -2.0212,0 -3.561,0.5083 -4.5918,1.539 -1.0308,1.0308 -1.5371,2.5707 -1.5371,4.5918 v 102.79 h 25.18 c 23.534,0 40.967,-4.2334 52.291,-12.726 11.562,-8.7309 17.338,-23.01 17.338,-42.791 0,-19.07 -4.5915,-32.754 -13.801,-41.02 -8.9719,-8.2637 -23.118,-12.383 -42.422,-12.383 z m 0,0.2656 h 32.457 c 19.266,0 33.34,4.1132 42.242,12.312 9.1344,8.1975 13.715,21.796 13.715,40.824 0,19.73 -5.7488,33.907 -17.234,42.58 -11.254,8.4401 -28.628,12.674 -52.131,12.674 h -24.914 v -102.53 c 0,-1.977 0.4907,-3.436 1.459,-4.4043 0.9683,-0.9683 2.4273,-1.4609 4.4043,-1.4609 z"
           color="#000000"
           fill="#75eef2"
           style="-inkscape-stroke:none"
           id="path46812" />
      </g>
      <path
         d="M 1860.21,631.2 H 0.01"
         fill="none"
         stroke="#6d6d6d"
         stroke-width="30"
         id="path46834" />
      <path
         d="m 4563.6,631.2 h -1925"
         fill="none"
         stroke="#6d6d6d"
         stroke-width="30"
         id="path46836" />
    </g>
    <g
       id="g47103"
       transform="matrix(1.2748612,0,0,1.2748612,-643.11651,-1646.6927)">
      <rect
         style="fill:none;fill-opacity:0.313725;stroke:none;stroke-width:5.79361;stroke-linecap:round;stroke-linejoin:round;paint-order:markers stroke fill"
         id="rect3466"
         width="664.68677"
         height="664.68677"
         x="1944.7533"
         y="1310.5374"
         inkscape:export-filename="/Users/intercoder/dev/Projects/branding/logos/interoracle/0x62d6116d6A139F2D402e8d8E30BAaF5790542801.png"
         inkscape:export-xdpi="83055.523"
         inkscape:export-ydpi="83055.523" />
      <g
         id="g29958"
         transform="matrix(25.226541,0,0,25.226541,-11528.409,-16269.761)"
         inkscape:export-filename="/Users/intercoder/dev/Projects/branding/logos/interoracle/0x62d6116d6A139F2D402e8d8E30BAaF5790542801.png"
         inkscape:export-xdpi="83055.523"
         inkscape:export-ydpi="83055.523">
        <ellipse
           cx="547.30927"
           cy="707.30829"
           fill="url(#b)"
           stroke="#828282"
           stroke-linecap="round"
           stroke-linejoin="bevel"
           stroke-width="11.8761"
           id="circle843-5"
           style="fill:url(#linearGradient3678);stroke-width:0.335176;stroke-miterlimit:4;stroke-dasharray:none"
           inkscape:export-filename="/Users/intercoder/dev/Projects/branding/logos/interoracle/0x62d6116d6A139F2D402e8d8E30BAaF5790542801_128.png"
           inkscape:export-xdpi="87495.258"
           inkscape:export-ydpi="87495.258"
           rx="9.8514223"
           ry="9.708065" />
        <path
           id="path3874"
           style="fill:#ffffff;fill-opacity:0.313725;stroke-width:0.0395163;paint-order:markers stroke fill"
           d="m 547.3095,697.58934 -0.66982,0.0428 c -4.32507,0.27622 -7.96979,3.51537 -8.85167,7.86614 -0.17671,0.87184 -0.16055,2.89765 0.0299,3.75432 0.28806,1.29543 0.72015,2.32926 1.40978,3.37317 1.61346,2.44211 4.07897,3.95808 7.0687,4.34601 v 3.7e-4 c 0.10783,0.014 0.37984,0.0299 0.60445,0.0352 l 0.40843,0.009 v -14.99368 l 0.85387,0.0147 c 1.03003,0.0177 1.59974,0.0936 2.56418,0.34205 1.45096,0.37379 2.6874,1.04315 3.62579,1.96291 0.58074,0.56918 1.03106,1.19062 1.21936,1.68268 h 2.4e-4 c 0.0584,0.15273 0.11878,0.27772 0.13407,0.27772 0.0539,0 -0.0642,-0.62722 -0.22084,-1.17305 -0.20498,-0.71425 -0.62894,-1.59253 -1.14056,-2.36272 -0.49238,-0.74125 -1.70145,-1.97171 -2.41643,-2.45919 -1.25093,-0.8528 -2.60917,-1.3362 -4.19112,-1.49175 l -0.42855,-0.0421 z" />
      </g>
      <g
         id="g30234"
         transform="matrix(456.14667,0,0,456.14667,-241093.31,-316237.42)"
         inkscape:export-filename="/Users/intercoder/dev/Projects/branding/logos/interoracle/0x62d6116d6A139F2D402e8d8E30BAaF5790542801.png"
         inkscape:export-xdpi="83055.523"
         inkscape:export-ydpi="83055.523">
        <ellipse
           cx="533.53815"
           cy="696.729"
           fill="url(#b)"
           stroke="#828282"
           stroke-linecap="round"
           stroke-linejoin="bevel"
           stroke-width="11.8761"
           id="circle843-7-6"
           style="fill:url(#radialGradient17724);fill-opacity:1;stroke:#828282;stroke-width:0.0296584;stroke-miterlimit:4;stroke-dasharray:none;stroke-opacity:1"
           inkscape:export-filename="/Users/intercoder/dev/Projects/branding/logos/interoracle/0x62d6116d6A139F2D402e8d8E30BAaF5790542801_128.png"
           inkscape:export-xdpi="87495.258"
           inkscape:export-ydpi="87495.258"
           rx="0.54482013"
           ry="0.53689194" />
        <path
           d="m 533.10098,697.13645 -0.14354,0.24615 c 0.0663,0.078 0.26832,0.19749 0.57814,0.20013 0.31001,-0.002 0.51619,-0.12981 0.57816,-0.20013 l -0.14353,-0.24615 c -0.10571,0.10417 -0.23073,0.17714 -0.43455,0.17714 -0.20444,-6.6e-4 -0.32476,-0.078 -0.43457,-0.17714 z"
           fill="#6d6d6d"
           id="path851-2"
           style="fill:#828282;fill-opacity:1;stroke:#666666;stroke-width:0.00739239;stroke-linejoin:round;stroke-miterlimit:4;stroke-dasharray:none;stroke-opacity:1"
           inkscape:export-filename="/Users/intercoder/dev/Projects/branding/logos/interoracle/0x62d6116d6A139F2D402e8d8E30BAaF5790542801_128.png"
           inkscape:export-xdpi="87495.258"
           inkscape:export-ydpi="87495.258" />
        <path
           d="m 533.53925,697.55684 c -0.20674,0.005 -0.44086,-0.0772 -0.53781,-0.17909 l 0.11097,-0.19001 c 0.0668,0.0647 0.21255,0.15645 0.42573,0.15336"
           fill="#b5b5b5"
           fill-opacity="0.25824"
           id="path853-6"
           style="stroke:#8c8c8c;stroke-width:0.00740074;stroke-linejoin:round;stroke-miterlimit:4;stroke-dasharray:none;stroke-opacity:1;paint-order:markers fill stroke"
           sodipodi:nodetypes="cccc"
           inkscape:export-filename="/Users/intercoder/dev/Projects/branding/logos/interoracle/0x62d6116d6A139F2D402e8d8E30BAaF5790542801_128.png"
           inkscape:export-xdpi="87495.258"
           inkscape:export-ydpi="87495.258" />
      </g>
      <ellipse
         cx="2278.3389"
         cy="1573.78"
         fill="url(#b)"
         stroke="#828282"
         stroke-linecap="round"
         stroke-linejoin="bevel"
         stroke-width="11.8761"
         id="circle843-7-6-7"
         style="fill:none;fill-opacity:1;stroke:#666666;stroke-width:3.45123;stroke-miterlimit:4;stroke-dasharray:none;stroke-opacity:1"
         inkscape:export-filename="/Users/intercoder/dev/Projects/branding/logos/interoracle/0x62d6116d6A139F2D402e8d8E30BAaF5790542801.png"
         inkscape:export-xdpi="83055.523"
         inkscape:export-ydpi="83055.523"
         rx="253.59366"
         ry="249.90343" />
    </g>
  </g>
</svg>
